<svg xmlns="http://www.w3.org/2000/svg" width="49.5" height="49.5" viewBox="0 0 49.5 49.5">
  <g id="Group_8203" data-name="Group 8203" transform="translate(-1439.759 -264)">
    <circle id="Ellipse_669" data-name="Ellipse 669" cx="24.75" cy="24.75" r="24.75" transform="translate(1439.759 264)" fill="#eff5ff"/>
    <path id="Icon_material-account-box" data-name="Icon material-account-box" d="M4.5,6.833V23.167A2.333,2.333,0,0,0,6.833,25.5H23.167A2.34,2.34,0,0,0,25.5,23.167V6.833A2.34,2.34,0,0,0,23.167,4.5H6.833A2.333,2.333,0,0,0,4.5,6.833Zm14,4.667A3.5,3.5,0,1,1,15,8,3.5,3.5,0,0,1,18.5,11.5ZM8,20.833c0-2.333,4.667-3.617,7-3.617s7,1.283,7,3.617V22H8Z" transform="translate(1449.509 274.5)" fill="#215bf7"/>
  </g>
</svg>
