<svg id="add" xmlns="http://www.w3.org/2000/svg" width="85.618" height="85.618" viewBox="0 0 85.618 85.618">
  <g id="Group_8160" data-name="Group 8160">
    <g id="Group_8159" data-name="Group 8159">
      <path id="Path_16264" data-name="Path 16264" d="M31.134,0H7.784A7.791,7.791,0,0,0,0,7.784v23.35a7.791,7.791,0,0,0,7.784,7.784h23.35a7.791,7.791,0,0,0,7.784-7.784V7.784A7.791,7.791,0,0,0,31.134,0Z" fill="#a7a7a7"/>
      <path id="Path_16265" data-name="Path 16265" d="M287.134,0h-23.35A7.791,7.791,0,0,0,256,7.784v23.35a7.791,7.791,0,0,0,7.784,7.784h23.35a7.791,7.791,0,0,0,7.784-7.784V7.784A7.791,7.791,0,0,0,287.134,0Z" transform="translate(-209.299)" fill="#a7a7a7"/>
      <path id="Path_16266" data-name="Path 16266" d="M31.134,256H7.784A7.791,7.791,0,0,0,0,263.784v23.35a7.791,7.791,0,0,0,7.784,7.784h23.35a7.791,7.791,0,0,0,7.784-7.784v-23.35A7.791,7.791,0,0,0,31.134,256Z" transform="translate(0 -209.299)" fill="#a7a7a7"/>
      <path id="Path_16267" data-name="Path 16267" d="M320.071,306.45h-5.838v-5.838a1.945,1.945,0,0,0-1.946-1.946H308.4a1.945,1.945,0,0,0-1.946,1.946v5.838h-5.838a1.945,1.945,0,0,0-1.946,1.946v3.892a1.945,1.945,0,0,0,1.946,1.946h5.838v5.838a1.945,1.945,0,0,0,1.946,1.946h3.892a1.945,1.945,0,0,0,1.946-1.946v-5.838h5.838a1.945,1.945,0,0,0,1.946-1.946V308.4A1.945,1.945,0,0,0,320.071,306.45Z" transform="translate(-244.182 -244.182)" fill="#a7a7a7"/>
    </g>
  </g>
</svg>
