<svg xmlns="http://www.w3.org/2000/svg" width="49.5" height="49.5" viewBox="0 0 49.5 49.5">
  <g id="Group_8205" data-name="Group 8205" transform="translate(-366.729 -771.823)">
    <circle id="Ellipse_669" data-name="Ellipse 669" cx="24.75" cy="24.75" r="24.75" transform="translate(366.729 771.823)" fill="#eff5ff"/>
    <path id="Icon_awesome-info" data-name="Icon awesome-info" d="M.741,15.708h.741V10.359H.741A.741.741,0,0,1,0,9.618V7.85a.741.741,0,0,1,.741-.741H4.887a.741.741,0,0,1,.741.741v7.858h.741a.741.741,0,0,1,.741.741v1.769a.741.741,0,0,1-.741.741H.741A.741.741,0,0,1,0,18.217V16.448A.741.741,0,0,1,.741,15.708ZM3.555,0A2.666,2.666,0,1,0,6.22,2.666,2.666,2.666,0,0,0,3.555,0Z" transform="translate(387.924 787.094)" fill="#215bf7"/>
  </g>
</svg>
